<svg xmlns="http://www.w3.org/2000/svg" width="1200" height="630" viewBox="0 0 1200 630" role="img" aria-label="TRUSTX social preview">
  <defs>
    <linearGradient id="bg" x1="0" y1="0" x2="1" y2="1">
      <stop offset="0" stop-color="#07100d"/>
      <stop offset=".45" stop-color="#111416"/>
      <stop offset="1" stop-color="#0a0a0a"/>
    </linearGradient>
    <radialGradient id="glow" cx=".2" cy=".15" r=".72">
      <stop offset="0" stop-color="#14f195" stop-opacity=".32"/>
      <stop offset=".45" stop-color="#14f195" stop-opacity=".08"/>
      <stop offset="1" stop-color="#14f195" stop-opacity="0"/>
    </radialGradient>
    <linearGradient id="green" x1="0" y1="0" x2="1" y2="1">
      <stop offset="0" stop-color="#14f195"/>
      <stop offset="1" stop-color="#85e9c9"/>
    </linearGradient>
    <pattern id="grid" width="46" height="46" patternUnits="userSpaceOnUse">
      <path d="M46 0H0v46" fill="none" stroke="#ffffff" stroke-opacity=".055"/>
    </pattern>
  </defs>
  <rect width="1200" height="630" fill="url(#bg)"/>
  <rect width="1200" height="630" fill="url(#glow)"/>
  <rect width="1200" height="630" fill="url(#grid)"/>
  <path d="M865 92c115 30 183 117 198 214 18 113-47 201-155 225-107 24-244-14-298-111-58-105 10-241 123-303 43-24 88-36 132-25z" fill="#14f195" opacity=".08"/>
  <path d="M80 86h252v60H80z" fill="#14f195" opacity=".12"/>
  <text x="96" y="126" font-family="Inter, Arial, sans-serif" font-size="34" font-weight="900" fill="#ffffff" letter-spacing="0">WEB3 LIQUIDITY</text>
  <text x="96" y="242" font-family="Inter, Arial, sans-serif" font-size="84" font-weight="900" fill="#ffffff" letter-spacing="0">TRUSTX</text>
  <text x="96" y="314" font-family="Inter, Arial, sans-serif" font-size="36" font-weight="800" fill="url(#green)" letter-spacing="0">Decentralized Liquidity Market</text>
  <text x="96" y="374" font-family="Inter, Arial, sans-serif" font-size="24" font-weight="700" fill="#c9d8d1" letter-spacing="0">WQUIL / QUIL orders, ETH wallet execution, deposit custody, and verifiable settlement.</text>
  <g transform="translate(96 458)">
    <rect width="208" height="48" rx="12" fill="#14f195"/>
    <text x="28" y="32" font-family="Inter, Arial, sans-serif" font-size="18" font-weight="900" fill="#07100d" letter-spacing="0">Explore Orders</text>
  </g>
  <g transform="translate(336 458)">
    <rect width="224" height="48" rx="12" fill="#162b26" stroke="#385f50"/>
    <text x="25" y="32" font-family="Inter, Arial, sans-serif" font-size="18" font-weight="900" fill="#85e9c9" letter-spacing="0">On-chain Audit Trail</text>
  </g>
  <g transform="translate(788 172)">
    <rect width="300" height="300" rx="44" fill="#101815" stroke="#385f50"/>
    <path d="M58 72h184v42h-67v130h-50V114H58z" fill="#14f195"/>
    <path d="M194 165l58 79h-58l-31-42-32 42H73l58-79-53-74h58l27 38 27-38h58z" fill="#85e9c9" opacity=".9"/>
  </g>
</svg>
